<mxfile host="Electron" agent="Mozilla/5.0 (Windows NT 10.0; Win64; x64) AppleWebKit/537.36 (KHTML, like Gecko) draw.io/26.2.2 Chrome/134.0.6998.178 Electron/35.1.2 Safari/537.36" version="26.2.2">
  <diagram name="Page-1" id="77uuA6jdwKOPbjYdia06">
    <mxGraphModel dx="2113" dy="1260" grid="0" gridSize="10" guides="1" tooltips="1" connect="1" arrows="1" fold="1" page="0" pageScale="1" pageWidth="850" pageHeight="1100" math="0" shadow="0">
      <root>
        <mxCell id="0" />
        <mxCell id="1" parent="0" />
        <mxCell id="YcRE82XQufJHWcAdZlRr-1" value="AWS Account" style="points=[[0,0],[0.25,0],[0.5,0],[0.75,0],[1,0],[1,0.25],[1,0.5],[1,0.75],[1,1],[0.75,1],[0.5,1],[0.25,1],[0,1],[0,0.75],[0,0.5],[0,0.25]];outlineConnect=0;gradientColor=none;html=1;whiteSpace=wrap;fontSize=12;fontStyle=0;container=1;pointerEvents=0;collapsible=0;recursiveResize=0;shape=mxgraph.aws4.group;grIcon=mxgraph.aws4.group_account;strokeColor=#CD2264;fillColor=none;verticalAlign=top;align=left;spacingLeft=30;fontColor=#CD2264;dashed=0;" parent="1" vertex="1">
          <mxGeometry x="-413" y="-168" width="1067" height="654" as="geometry" />
        </mxCell>
        <mxCell id="YcRE82XQufJHWcAdZlRr-5" value="VPC" style="points=[[0,0],[0.25,0],[0.5,0],[0.75,0],[1,0],[1,0.25],[1,0.5],[1,0.75],[1,1],[0.75,1],[0.5,1],[0.25,1],[0,1],[0,0.75],[0,0.5],[0,0.25]];outlineConnect=0;gradientColor=none;html=1;whiteSpace=wrap;fontSize=12;fontStyle=0;container=1;pointerEvents=0;collapsible=0;recursiveResize=0;shape=mxgraph.aws4.group;grIcon=mxgraph.aws4.group_vpc2;strokeColor=#8C4FFF;fillColor=none;verticalAlign=top;align=left;spacingLeft=30;fontColor=#AAB7B8;dashed=0;" parent="YcRE82XQufJHWcAdZlRr-1" vertex="1">
          <mxGeometry x="53" y="43" width="963" height="551" as="geometry" />
        </mxCell>
        <mxCell id="YcRE82XQufJHWcAdZlRr-6" value="" style="rounded=1;arcSize=10;dashed=1;strokeColor=#F59D56;fillColor=none;gradientColor=none;dashPattern=8 4;strokeWidth=2;" parent="YcRE82XQufJHWcAdZlRr-5" vertex="1">
          <mxGeometry x="71" y="34" width="865" height="111" as="geometry" />
        </mxCell>
        <mxCell id="YcRE82XQufJHWcAdZlRr-9" value="" style="fillColor=none;strokeColor=#147EBA;dashed=1;verticalAlign=top;fontStyle=0;fontColor=#147EBA;whiteSpace=wrap;html=1;dashPattern=12 12;" parent="YcRE82XQufJHWcAdZlRr-5" vertex="1">
          <mxGeometry x="71" y="301" width="854" height="126" as="geometry" />
        </mxCell>
        <mxCell id="YcRE82XQufJHWcAdZlRr-13" value="Public subnet" style="points=[[0,0],[0.25,0],[0.5,0],[0.75,0],[1,0],[1,0.25],[1,0.5],[1,0.75],[1,1],[0.75,1],[0.5,1],[0.25,1],[0,1],[0,0.75],[0,0.5],[0,0.25]];outlineConnect=0;gradientColor=none;html=1;whiteSpace=wrap;fontSize=12;fontStyle=0;container=1;pointerEvents=0;collapsible=0;recursiveResize=0;shape=mxgraph.aws4.group;grIcon=mxgraph.aws4.group_security_group;grStroke=0;strokeColor=#7AA116;fillColor=#F2F6E8;verticalAlign=top;align=left;spacingLeft=30;fontColor=#248814;dashed=0;" parent="YcRE82XQufJHWcAdZlRr-5" vertex="1">
          <mxGeometry x="114" y="85" width="201" height="284" as="geometry" />
        </mxCell>
        <mxCell id="YcRE82XQufJHWcAdZlRr-16" value="" style="sketch=0;points=[[0,0,0],[0.25,0,0],[0.5,0,0],[0.75,0,0],[1,0,0],[0,1,0],[0.25,1,0],[0.5,1,0],[0.75,1,0],[1,1,0],[0,0.25,0],[0,0.5,0],[0,0.75,0],[1,0.25,0],[1,0.5,0],[1,0.75,0]];outlineConnect=0;fontColor=#232F3E;fillColor=#ED7100;strokeColor=#ffffff;dashed=0;verticalLabelPosition=bottom;verticalAlign=top;align=center;html=1;fontSize=12;fontStyle=0;aspect=fixed;shape=mxgraph.aws4.resourceIcon;resIcon=mxgraph.aws4.ec2;" parent="YcRE82XQufJHWcAdZlRr-13" vertex="1">
          <mxGeometry x="32" y="24" width="42" height="42" as="geometry" />
        </mxCell>
        <mxCell id="YcRE82XQufJHWcAdZlRr-17" value="&lt;font style=&quot;font-size: 10px;&quot;&gt;&lt;b&gt;Jump Host&lt;/b&gt;&lt;/font&gt;" style="text;html=1;align=center;verticalAlign=middle;resizable=0;points=[];autosize=1;strokeColor=none;fillColor=none;fontSize=16;" parent="YcRE82XQufJHWcAdZlRr-13" vertex="1">
          <mxGeometry x="18" y="65" width="70" height="31" as="geometry" />
        </mxCell>
        <mxCell id="YcRE82XQufJHWcAdZlRr-19" value="" style="html=1;verticalLabelPosition=bottom;align=center;labelBackgroundColor=#ffffff;verticalAlign=top;strokeWidth=2;strokeColor=#0080F0;shadow=0;dashed=0;shape=mxgraph.ios7.icons.locked;" parent="YcRE82XQufJHWcAdZlRr-13" vertex="1">
          <mxGeometry x="72" y="24" width="16" height="27" as="geometry" />
        </mxCell>
        <mxCell id="1PmL8O_2486keE900lcz-2" value="" style="sketch=0;points=[[0,0,0],[0.25,0,0],[0.5,0,0],[0.75,0,0],[1,0,0],[0,1,0],[0.25,1,0],[0.5,1,0],[0.75,1,0],[1,1,0],[0,0.25,0],[0,0.5,0],[0,0.75,0],[1,0.25,0],[1,0.5,0],[1,0.75,0]];outlineConnect=0;fontColor=#232F3E;fillColor=#ED7100;strokeColor=#ffffff;dashed=0;verticalLabelPosition=bottom;verticalAlign=top;align=center;html=1;fontSize=12;fontStyle=0;aspect=fixed;shape=mxgraph.aws4.resourceIcon;resIcon=mxgraph.aws4.ec2;" parent="YcRE82XQufJHWcAdZlRr-13" vertex="1">
          <mxGeometry x="78" y="83" width="36" height="36" as="geometry" />
        </mxCell>
        <mxCell id="1PmL8O_2486keE900lcz-7" value="" style="sketch=0;points=[[0,0,0],[0.25,0,0],[0.5,0,0],[0.75,0,0],[1,0,0],[0,1,0],[0.25,1,0],[0.5,1,0],[0.75,1,0],[1,1,0],[0,0.25,0],[0,0.5,0],[0,0.75,0],[1,0.25,0],[1,0.5,0],[1,0.75,0]];outlineConnect=0;fontColor=#232F3E;fillColor=#ED7100;strokeColor=#ffffff;dashed=0;verticalLabelPosition=bottom;verticalAlign=top;align=center;html=1;fontSize=12;fontStyle=0;aspect=fixed;shape=mxgraph.aws4.resourceIcon;resIcon=mxgraph.aws4.ec2;" parent="YcRE82XQufJHWcAdZlRr-13" vertex="1">
          <mxGeometry x="73" y="171" width="41" height="41" as="geometry" />
        </mxCell>
        <mxCell id="1PmL8O_2486keE900lcz-17" value="" style="endArrow=classic;html=1;rounded=0;" parent="YcRE82XQufJHWcAdZlRr-13" edge="1">
          <mxGeometry width="50" height="50" relative="1" as="geometry">
            <mxPoint x="33" y="145" as="sourcePoint" />
            <mxPoint x="76" y="106" as="targetPoint" />
            <Array as="points">
              <mxPoint x="33" y="103" />
              <mxPoint x="55" y="103" />
            </Array>
          </mxGeometry>
        </mxCell>
        <mxCell id="1PmL8O_2486keE900lcz-20" value="" style="endArrow=classic;html=1;rounded=0;" parent="YcRE82XQufJHWcAdZlRr-13" edge="1">
          <mxGeometry width="50" height="50" relative="1" as="geometry">
            <mxPoint x="-36" y="150" as="sourcePoint" />
            <mxPoint x="69" y="191" as="targetPoint" />
            <Array as="points">
              <mxPoint x="29" y="150" />
              <mxPoint x="29" y="191" />
            </Array>
          </mxGeometry>
        </mxCell>
        <mxCell id="1PmL8O_2486keE900lcz-21" value="" style="endArrow=classic;html=1;rounded=0;" parent="YcRE82XQufJHWcAdZlRr-13" edge="1">
          <mxGeometry width="50" height="50" relative="1" as="geometry">
            <mxPoint x="118" y="100" as="sourcePoint" />
            <mxPoint x="204" y="142" as="targetPoint" />
            <Array as="points">
              <mxPoint x="154" y="100" />
              <mxPoint x="154" y="142" />
            </Array>
          </mxGeometry>
        </mxCell>
        <mxCell id="1PmL8O_2486keE900lcz-22" value="" style="endArrow=none;html=1;rounded=0;" parent="YcRE82XQufJHWcAdZlRr-13" edge="1">
          <mxGeometry width="50" height="50" relative="1" as="geometry">
            <mxPoint x="120" y="192" as="sourcePoint" />
            <mxPoint x="156" y="145" as="targetPoint" />
            <Array as="points">
              <mxPoint x="156" y="192" />
            </Array>
          </mxGeometry>
        </mxCell>
        <mxCell id="Do1UFHH8ANuJ3BuyUsib-12" value="" style="endArrow=classic;html=1;rounded=0;exitX=0.991;exitY=0.43;exitDx=0;exitDy=0;exitPerimeter=0;" parent="YcRE82XQufJHWcAdZlRr-13" edge="1">
          <mxGeometry width="50" height="50" relative="1" as="geometry">
            <mxPoint x="80.577" y="245.93000000000006" as="sourcePoint" />
            <mxPoint x="206" y="150" as="targetPoint" />
            <Array as="points">
              <mxPoint x="206" y="246" />
            </Array>
          </mxGeometry>
        </mxCell>
        <mxCell id="Do1UFHH8ANuJ3BuyUsib-21" style="edgeStyle=orthogonalEdgeStyle;rounded=0;orthogonalLoop=1;jettySize=auto;html=1;" parent="YcRE82XQufJHWcAdZlRr-5" source="YcRE82XQufJHWcAdZlRr-20" target="YcRE82XQufJHWcAdZlRr-15" edge="1">
          <mxGeometry relative="1" as="geometry" />
        </mxCell>
        <mxCell id="Do1UFHH8ANuJ3BuyUsib-24" style="edgeStyle=orthogonalEdgeStyle;rounded=0;orthogonalLoop=1;jettySize=auto;html=1;entryX=0;entryY=0.5;entryDx=0;entryDy=0;entryPerimeter=0;" parent="YcRE82XQufJHWcAdZlRr-5" source="YcRE82XQufJHWcAdZlRr-20" target="1PmL8O_2486keE900lcz-6" edge="1">
          <mxGeometry relative="1" as="geometry">
            <Array as="points">
              <mxPoint x="418" y="220" />
              <mxPoint x="418" y="258" />
              <mxPoint x="471" y="258" />
            </Array>
          </mxGeometry>
        </mxCell>
        <mxCell id="Do1UFHH8ANuJ3BuyUsib-25" style="edgeStyle=orthogonalEdgeStyle;rounded=0;orthogonalLoop=1;jettySize=auto;html=1;" parent="YcRE82XQufJHWcAdZlRr-5" source="YcRE82XQufJHWcAdZlRr-20" target="YcRE82XQufJHWcAdZlRr-15" edge="1">
          <mxGeometry relative="1" as="geometry" />
        </mxCell>
        <mxCell id="Do1UFHH8ANuJ3BuyUsib-27" style="edgeStyle=orthogonalEdgeStyle;rounded=0;orthogonalLoop=1;jettySize=auto;html=1;entryX=0;entryY=0.75;entryDx=0;entryDy=0;entryPerimeter=0;" parent="YcRE82XQufJHWcAdZlRr-5" target="1PmL8O_2486keE900lcz-6" edge="1">
          <mxGeometry relative="1" as="geometry">
            <mxPoint x="400" y="223" as="sourcePoint" />
            <Array as="points">
              <mxPoint x="417" y="223" />
              <mxPoint x="417" y="262" />
            </Array>
          </mxGeometry>
        </mxCell>
        <mxCell id="Do1UFHH8ANuJ3BuyUsib-28" value="" style="edgeStyle=orthogonalEdgeStyle;rounded=0;orthogonalLoop=1;jettySize=auto;html=1;" parent="YcRE82XQufJHWcAdZlRr-5" edge="1">
          <mxGeometry relative="1" as="geometry">
            <mxPoint x="377.0000000000002" y="236.99846153846144" as="sourcePoint" />
            <mxPoint x="470.5" y="268.9984615384614" as="targetPoint" />
          </mxGeometry>
        </mxCell>
        <mxCell id="YcRE82XQufJHWcAdZlRr-20" value="" style="outlineConnect=0;dashed=0;verticalLabelPosition=bottom;verticalAlign=top;align=center;html=1;shape=mxgraph.aws3.application_load_balancer;fillColor=#F58536;gradientColor=none;" parent="YcRE82XQufJHWcAdZlRr-5" vertex="1">
          <mxGeometry x="327" y="196" width="50" height="47" as="geometry" />
        </mxCell>
        <mxCell id="1PmL8O_2486keE900lcz-1" value="" style="outlineConnect=0;dashed=0;verticalLabelPosition=bottom;verticalAlign=top;align=center;html=1;shape=mxgraph.aws3.application_load_balancer;fillColor=#F58534;gradientColor=none;" parent="YcRE82XQufJHWcAdZlRr-5" vertex="1">
          <mxGeometry x="31" y="217" width="40" height="44" as="geometry" />
        </mxCell>
        <mxCell id="1PmL8O_2486keE900lcz-18" value="" style="endArrow=none;html=1;rounded=0;" parent="YcRE82XQufJHWcAdZlRr-5" edge="1">
          <mxGeometry width="50" height="50" relative="1" as="geometry">
            <mxPoint x="72" y="235" as="sourcePoint" />
            <mxPoint x="145" y="235" as="targetPoint" />
            <Array as="points" />
          </mxGeometry>
        </mxCell>
        <mxCell id="1PmL8O_2486keE900lcz-25" value="" style="html=1;verticalLabelPosition=bottom;align=center;labelBackgroundColor=#ffffff;verticalAlign=top;strokeWidth=2;strokeColor=#0080F0;shadow=0;dashed=0;shape=mxgraph.ios7.icons.locked;" parent="YcRE82XQufJHWcAdZlRr-5" vertex="1">
          <mxGeometry x="37" y="206" width="16" height="27" as="geometry" />
        </mxCell>
        <mxCell id="YcRE82XQufJHWcAdZlRr-15" value="Private subnet" style="points=[[0,0],[0.25,0],[0.5,0],[0.75,0],[1,0],[1,0.25],[1,0.5],[1,0.75],[1,1],[0.75,1],[0.5,1],[0.25,1],[0,1],[0,0.75],[0,0.5],[0,0.25]];outlineConnect=0;gradientColor=none;html=1;whiteSpace=wrap;fontSize=12;fontStyle=0;container=1;pointerEvents=0;collapsible=0;recursiveResize=0;shape=mxgraph.aws4.group;grIcon=mxgraph.aws4.group_security_group;grStroke=0;strokeColor=#00A4A6;fillColor=#E6F6F7;verticalAlign=top;align=left;spacingLeft=30;fontColor=#147EBA;dashed=0;" parent="YcRE82XQufJHWcAdZlRr-5" vertex="1">
          <mxGeometry x="381" y="72" width="220" height="301" as="geometry" />
        </mxCell>
        <mxCell id="1PmL8O_2486keE900lcz-3" value="" style="sketch=0;points=[[0,0,0],[0.25,0,0],[0.5,0,0],[0.75,0,0],[1,0,0],[0,1,0],[0.25,1,0],[0.5,1,0],[0.75,1,0],[1,1,0],[0,0.25,0],[0,0.5,0],[0,0.75,0],[1,0.25,0],[1,0.5,0],[1,0.75,0]];outlineConnect=0;fontColor=#232F3E;fillColor=#ED7100;strokeColor=#ffffff;dashed=0;verticalLabelPosition=bottom;verticalAlign=top;align=center;html=1;fontSize=12;fontStyle=0;aspect=fixed;shape=mxgraph.aws4.resourceIcon;resIcon=mxgraph.aws4.ec2;" parent="YcRE82XQufJHWcAdZlRr-15" vertex="1">
          <mxGeometry x="88" y="71" width="40" height="40" as="geometry" />
        </mxCell>
        <mxCell id="1PmL8O_2486keE900lcz-6" value="" style="sketch=0;points=[[0,0,0],[0.25,0,0],[0.5,0,0],[0.75,0,0],[1,0,0],[0,1,0],[0.25,1,0],[0.5,1,0],[0.75,1,0],[1,1,0],[0,0.25,0],[0,0.5,0],[0,0.75,0],[1,0.25,0],[1,0.5,0],[1,0.75,0]];outlineConnect=0;fontColor=#232F3E;fillColor=#ED7100;strokeColor=#ffffff;dashed=0;verticalLabelPosition=bottom;verticalAlign=top;align=center;html=1;fontSize=12;fontStyle=0;aspect=fixed;shape=mxgraph.aws4.resourceIcon;resIcon=mxgraph.aws4.ec2;" parent="YcRE82XQufJHWcAdZlRr-15" vertex="1">
          <mxGeometry x="89.5" y="176" width="41" height="41" as="geometry" />
        </mxCell>
        <mxCell id="1PmL8O_2486keE900lcz-23" value="" style="endArrow=classic;html=1;rounded=0;entryX=0;entryY=0.5;entryDx=0;entryDy=0;entryPerimeter=0;" parent="YcRE82XQufJHWcAdZlRr-15" target="1PmL8O_2486keE900lcz-3" edge="1">
          <mxGeometry width="50" height="50" relative="1" as="geometry">
            <mxPoint y="149" as="sourcePoint" />
            <mxPoint x="83" y="90" as="targetPoint" />
            <Array as="points">
              <mxPoint x="39" y="149" />
              <mxPoint x="39" y="90" />
            </Array>
          </mxGeometry>
        </mxCell>
        <mxCell id="LlX535LLwSDsNKQfwuK3-12" value="Database subnet" style="points=[[0,0],[0.25,0],[0.5,0],[0.75,0],[1,0],[1,0.25],[1,0.5],[1,0.75],[1,1],[0.75,1],[0.5,1],[0.25,1],[0,1],[0,0.75],[0,0.5],[0,0.25]];outlineConnect=0;html=1;whiteSpace=wrap;fontSize=12;fontStyle=0;container=1;pointerEvents=0;collapsible=0;recursiveResize=0;shape=mxgraph.aws4.group;grIcon=mxgraph.aws4.group_security_group;grStroke=0;strokeColor=#d79b00;fillColor=#ffe6cc;verticalAlign=top;align=left;spacingLeft=30;dashed=0;" parent="YcRE82XQufJHWcAdZlRr-5" vertex="1">
          <mxGeometry x="664" y="72" width="191" height="300" as="geometry" />
        </mxCell>
        <mxCell id="Do1UFHH8ANuJ3BuyUsib-14" value="" style="outlineConnect=0;dashed=0;verticalLabelPosition=bottom;verticalAlign=top;align=center;html=1;shape=mxgraph.aws3.rds_db_instance;fillColor=#2E73B8;gradientColor=none;" parent="LlX535LLwSDsNKQfwuK3-12" vertex="1">
          <mxGeometry x="63" y="95" width="49.5" height="66" as="geometry" />
        </mxCell>
        <mxCell id="Do1UFHH8ANuJ3BuyUsib-16" value="" style="html=1;verticalLabelPosition=bottom;align=center;labelBackgroundColor=#ffffff;verticalAlign=top;strokeWidth=2;strokeColor=#0080F0;shadow=0;dashed=0;shape=mxgraph.ios7.icons.locked;" parent="LlX535LLwSDsNKQfwuK3-12" vertex="1">
          <mxGeometry x="79.75" y="72" width="16" height="25" as="geometry" />
        </mxCell>
        <mxCell id="Do1UFHH8ANuJ3BuyUsib-1" value="" style="html=1;strokeWidth=1;shadow=0;dashed=0;shape=mxgraph.ios7.misc.vpn;fillColor=#007AFF;strokeColor=none;buttonText=;strokeColor2=#222222;fontColor=#222222;fontSize=8;verticalLabelPosition=bottom;verticalAlign=top;align=center;sketch=0;" parent="YcRE82XQufJHWcAdZlRr-5" vertex="1">
          <mxGeometry x="151" y="301" width="47" height="51" as="geometry" />
        </mxCell>
        <mxCell id="Do1UFHH8ANuJ3BuyUsib-15" value="" style="html=1;verticalLabelPosition=bottom;align=center;labelBackgroundColor=#ffffff;verticalAlign=top;strokeWidth=2;strokeColor=#0080F0;shadow=0;dashed=0;shape=mxgraph.ios7.icons.locked;" parent="YcRE82XQufJHWcAdZlRr-5" vertex="1">
          <mxGeometry x="352" y="173" width="16" height="27" as="geometry" />
        </mxCell>
        <mxCell id="Do1UFHH8ANuJ3BuyUsib-17" style="edgeStyle=orthogonalEdgeStyle;rounded=0;orthogonalLoop=1;jettySize=auto;html=1;" parent="YcRE82XQufJHWcAdZlRr-5" source="1PmL8O_2486keE900lcz-3" target="Do1UFHH8ANuJ3BuyUsib-14" edge="1">
          <mxGeometry relative="1" as="geometry" />
        </mxCell>
        <mxCell id="Do1UFHH8ANuJ3BuyUsib-32" value="" style="endArrow=classic;html=1;rounded=0;entryX=0.5;entryY=0.98;entryDx=0;entryDy=0;entryPerimeter=0;" parent="YcRE82XQufJHWcAdZlRr-5" edge="1">
          <mxGeometry width="50" height="50" relative="1" as="geometry">
            <mxPoint x="315" y="326.32" as="sourcePoint" />
            <mxPoint x="749.7500000000005" y="239.00000000000006" as="targetPoint" />
            <Array as="points">
              <mxPoint x="752" y="334.32" />
              <mxPoint x="752" y="269.32" />
            </Array>
          </mxGeometry>
        </mxCell>
        <mxCell id="Do1UFHH8ANuJ3BuyUsib-36" value="" style="endArrow=classic;html=1;rounded=0;exitX=0.437;exitY=1;exitDx=0;exitDy=0;exitPerimeter=0;" parent="YcRE82XQufJHWcAdZlRr-5" edge="1">
          <mxGeometry width="50" height="50" relative="1" as="geometry">
            <mxPoint x="192.99199999999973" y="128" as="sourcePoint" />
            <mxPoint x="752" y="145" as="targetPoint" />
            <Array as="points">
              <mxPoint x="752" y="121" />
              <mxPoint x="752" y="145" />
            </Array>
          </mxGeometry>
        </mxCell>
        <mxCell id="YcRE82XQufJHWcAdZlRr-3" style="edgeStyle=none;curved=1;rounded=0;orthogonalLoop=1;jettySize=auto;html=1;exitX=0.5;exitY=0;exitDx=0;exitDy=0;fontSize=12;startSize=8;endSize=8;" parent="1" source="YcRE82XQufJHWcAdZlRr-1" target="YcRE82XQufJHWcAdZlRr-1" edge="1">
          <mxGeometry relative="1" as="geometry" />
        </mxCell>
        <mxCell id="Do1UFHH8ANuJ3BuyUsib-3" value="" style="points=[[0.35,0,0],[0.98,0.51,0],[1,0.71,0],[0.67,1,0],[0,0.795,0],[0,0.65,0]];verticalLabelPosition=bottom;sketch=0;html=1;verticalAlign=top;aspect=fixed;align=center;pointerEvents=1;shape=mxgraph.cisco19.user;fillColor=#005073;strokeColor=none;" parent="1" vertex="1">
          <mxGeometry x="-620" y="144" width="95" height="95" as="geometry" />
        </mxCell>
        <mxCell id="Do1UFHH8ANuJ3BuyUsib-4" value="" style="endArrow=classic;html=1;rounded=0;exitX=0.98;exitY=0.51;exitDx=0;exitDy=0;exitPerimeter=0;" parent="1" source="Do1UFHH8ANuJ3BuyUsib-3" edge="1">
          <mxGeometry width="50" height="50" relative="1" as="geometry">
            <mxPoint x="-531" y="195" as="sourcePoint" />
            <mxPoint x="-256" y="188" as="targetPoint" />
            <Array as="points" />
          </mxGeometry>
        </mxCell>
        <mxCell id="Do1UFHH8ANuJ3BuyUsib-29" value="" style="endArrow=classic;html=1;rounded=0;" parent="1" edge="1">
          <mxGeometry width="50" height="50" relative="1" as="geometry">
            <mxPoint x="58" y="99" as="sourcePoint" />
            <mxPoint x="106" y="146" as="targetPoint" />
            <Array as="points">
              <mxPoint x="58" y="146" />
            </Array>
          </mxGeometry>
        </mxCell>
      </root>
    </mxGraphModel>
  </diagram>
</mxfile>
